<?xml version="1.0" encoding="UTF-8" standalone="no"?>
<!DOCTYPE svg PUBLIC "-//W3C//DTD SVG 1.1//EN" "http://www.w3.org/Graphics/SVG/1.1/DTD/svg11.dtd">
<svg version="1.1" xmlns="http://www.w3.org/2000/svg" xmlns:xlink="http://www.w3.org/1999/xlink" preserveAspectRatio="xMidYMid meet" viewBox="0 0 445 410" width="445" height="410"><defs><path d="M261 156L277 112L341 89L301 63L346 63L422 59L445 0L341 7L250 18L97 125L157 115L0 255L81 285L147 248" id="c21Ij40KeN"></path><path d="M318.48 240.75L411.79 401.46L225.17 401.46L38.57 401.46L131.87 240.75L225.17 80.04L318.48 240.75Z" id="g1SfUECICx"></path><path d="M280 182L244 216L225.54 187L206 216L165 182" id="caPw0frxn"></path><path d="" id="a3m55Yetay"></path><path d="M390.36 401.46L274.46 266.43L222.68 389.64L150.36 308.39L82.5 401.46" id="e4ML3hr9gt"></path></defs><g><g><g><use xlink:href="#c21Ij40KeN" opacity="1" fill="#1bfb9a" fill-opacity="1"></use></g><g><use xlink:href="#g1SfUECICx" opacity="1" fill="#2c2e33" fill-opacity="1"></use><g><use xlink:href="#g1SfUECICx" opacity="1" fill-opacity="0" stroke="#ffffff" stroke-width="20" stroke-opacity="1"></use></g></g><g><g><use xlink:href="#caPw0frxn" opacity="1" fill-opacity="0" stroke="#ffffff" stroke-width="16" stroke-opacity="1"></use></g></g><g><g><use xlink:href="#a3m55Yetay" opacity="1" fill-opacity="0" stroke="#2e2e54" stroke-width="16" stroke-opacity="1"></use></g></g><g><g><use xlink:href="#e4ML3hr9gt" opacity="1" fill-opacity="0" stroke="#ffffff" stroke-width="20" stroke-opacity="1"></use></g></g></g></g></svg>